<svg xmlns="http://www.w3.org/2000/svg" width="1024" height="1024" viewBox="0 0 1024 1024">
  <!--
    Shark Explorer: a shark, mouth open, in LeakCanary's yellow (#FFCC32) and amber (#F5BD14), on a
    ground the colour of the app's slate scheme and nothing else. It fills the icon on purpose, so
    that it still reads as a shark at the size a dock shows.

    The macOS app icon grid is baked in, because jpackage ships this as an .icns and nothing masks
    or insets it for us: an 824x824 body centred in a 1024x1024 canvas, corners of extent 207 whose
    handles put the curve's 45 degree point on a superellipse rather than a circular arc, and a soft
    shadow below. Those numbers are fitted to a stock macOS icon's silhouette, within 1.5px RMS.

    The shark's transform is what makes it as large as the icon allows: it is scaled and centred so
    that the tips of the snout, the fins and the tail clear the body's edge by 34, measured against
    those superelliptical corners rather than against a bounding box, which is why the fin can come
    as close to the top as it does.

    Edit this, then run ./render-icons.sh to regenerate the .icns, the .ico and the runtime PNG.
  -->
  <defs>
    <filter id="shadow" x="-15%" y="-15%" width="130%" height="130%">
      <feDropShadow dx="0" dy="8" stdDeviation="9" flood-color="#000000" flood-opacity="0.3"/>
    </filter>
  </defs>
  <path d="M 307 100 H 717 C 852.5 100 924 171.5 924 307 V 717 C 924 852.5 852.5 924 717 924 H 307 C 171.5 924 100 852.5 100 717 V 307 C 100 171.5 171.5 100 307 100 Z" fill="#1B2428" filter="url(#shadow)"/>
  <g id="shark" transform="translate(101.1 536.5) scale(0.7888)">
    <path d="M 628 78 C 596 158 536 224 462 268 C 494 202 512 142 518 98 Z" fill="#F5BD14"/> <!-- pectoral fin -->
    <path d="M 190 -44 C 146 -122 96 -218 44 -306 C 34 -226 56 -122 116 -20 C 108 30 92 76 62 122 C 114 84 164 48 196 26 Z" fill="#FFCC32"/> <!-- tail -->
    <!-- The lower jaw, dropped. It is drawn before the body so the body covers where it hinges, and
         in the underside's amber so it reads as part of the shark rather than as something added. -->
    <path d="M 830 56 C 874 74 918 84 956 76 C 950 104 906 112 862 104 C 840 98 828 80 830 56 Z" fill="#F5BD14"/>
    <path d="M 1000 6 C 1002 -26 984 -54 940 -74 C 872 -104 780 -122 682 -128 L 556 -330 C 542 -240 512 -168 462 -118 C 372 -108 268 -86 190 -46 L 190 28 C 286 74 402 104 520 114 C 636 122 744 110 830 82 C 900 60 966 34 1000 6 Z" fill="#FFCC32"/> <!-- body -->
    <path d="M 190 28 C 286 74 402 104 520 114 C 636 122 744 110 830 82 C 900 60 966 34 1000 6 C 940 26 856 44 790 50 C 640 62 400 46 190 28 Z" fill="#F5BD14"/> <!-- underside -->
    <path d="M 706 -100 C 694 -66 692 -30 700 4" fill="none" stroke="#F5BD14" stroke-width="17" stroke-linecap="round"/>
    <path d="M 748 -94 C 736 -62 734 -28 742 2" fill="none" stroke="#F5BD14" stroke-width="17" stroke-linecap="round"/>
    <path d="M 790 -84 C 778 -54 776 -24 784 0" fill="none" stroke="#F5BD14" stroke-width="17" stroke-linecap="round"/>
    <!-- A shark's eye is small, and an oval tilted with the head rather than a dot. -->
    <ellipse cx="886" cy="-52" rx="19" ry="15" transform="rotate(-12 886 -52)" fill="#151C1F"/>
    <!-- The mouth: the roof of the upper jaw forward, then straight down across the opening, then
         back along the lower jaw's tooth line. The roof stops short of the snout so the snout
         overhangs the mouth instead of thinning into a beak, which is what it did when the roof ran
         all the way forward. -->
    <path d="M 830 56 C 872 38 912 24 946 14 L 956 76 C 918 84 874 74 830 56 Z" fill="#151C1F"/>
    <!-- Five teeth above and four below, interlocking. Each is the same size as the others, which is
         what stops the row reading as a saw blade; a tooth sized to the gape it sits in can't be,
         because the gape closes toward the hinge. Their bases sit 2 outside the tooth line so that
         no seam shows along it. -->
    <path d="M 847.4 46.6 L 861.8 55.9 L 866 39.2 Z M 865.2 39.5 L 879.5 49 L 883.9 32.4 Z M 883.1 32.7 L 897.2 42.5 L 902 26 Z M 901.2 26.3 L 915.1 36.3 L 920.1 19.9 Z M 919.3 20.2 L 933.1 30.5 L 938.4 14.2 Z M 849.1 65.4 L 862.8 55.2 L 868.1 71.5 Z M 874.8 73.3 L 887.6 62 L 894.3 77.6 Z M 901.2 78.7 L 912.5 66 L 921.1 80.6 Z M 928.2 80.8 L 937.2 66.5 L 948.1 79.4 Z" fill="#FFCC32"/>
  </g>
</svg>
